<svg xmlns="http://www.w3.org/2000/svg" version="1.1" xmlns:xlink="http://www.w3.org/1999/xlink" xmlns:svgjs="http://svgjs.com/svgjs" width="512" height="512"><svg version="1.1" id="SvgjsSvg1000" xmlns="http://www.w3.org/2000/svg" xmlns:xlink="http://www.w3.org/1999/xlink" x="0px" y="0px" viewBox="0 0 512 512" style="enable-background:new 0 0 512 512;" xml:space="preserve">
<path style="fill:#E1E6E8;" d="M256,508.062c-139.422,0-252.849-113.428-252.849-252.849S116.578,2.363,256,2.363
	s252.849,113.428,252.849,252.849S395.422,508.062,256,508.062z"></path>
<g>
	<polygon style="fill:#183651;" points="17.329,55.138 5.514,45.686 41.748,0 77.194,45.686 65.378,55.138 41.748,25.206 	"></polygon>
	<rect x="33.871" y="12.603" style="fill:#183651;" width="15.754" height="242.609"></rect>
	<polygon style="fill:#183651;" points="470.252,512 434.806,466.314 446.622,456.862 470.252,486.794 494.671,456.862 
		506.486,466.314 	"></polygon>
	<rect x="462.375" y="256.788" style="fill:#183651;" width="15.754" height="242.609"></rect>
	<polygon style="fill:#183651;" points="466.314,77.194 456.862,65.378 486.794,41.748 456.862,17.329 466.314,5.514 512,41.748 	
		"></polygon>
	<rect x="256.788" y="33.871" style="fill:#183651;" width="242.609" height="15.754"></rect>
	<polygon style="fill:#183651;" points="45.686,506.486 0,470.252 45.686,434.018 55.138,446.622 25.206,470.252 55.138,494.671 	
		"></polygon>
	<rect x="12.603" y="462.375" style="fill:#183651;" width="242.609" height="15.754"></rect>
</g>
<circle style="fill:#4EBD9E;" cx="256" cy="255.212" r="214.252"></circle>
<path style="fill:#183651;" d="M256,477.342c-122.88,0-222.129-100.037-222.129-222.129c0-122.88,100.037-222.129,222.129-222.129
	S478.129,133.12,478.129,255.212S378.88,477.342,256,477.342z M256,48.049c-114.215,0-206.375,92.948-206.375,207.163
	S141.785,461.588,256,461.588s206.375-92.948,206.375-206.375S370.215,48.049,256,48.049z"></path>
<g>
	<path style="fill:#FFFFFF;" d="M256,437.957c-100.825,0-183.532-81.92-183.532-183.532C72.468,153.6,154.388,70.892,256,70.892
		c100.825,0,183.532,81.92,183.532,183.532S356.825,437.957,256,437.957z"></path>
	<polygon style="fill:#FFFFFF;" points="256,255.212 195.348,219.766 195.348,150.449 256,115.003 316.652,150.449 316.652,219.766 
			"></polygon>
</g>
<path style="fill:#183651;" d="M256,263.089c-1.575,0-2.363,0-3.938-0.788l-60.652-34.658c-2.363-1.575-3.938-3.938-3.938-7.089
	v-70.105c0-3.151,1.575-5.514,3.938-7.089l60.652-34.658c2.363-1.575,5.514-1.575,7.877,0l60.652,34.658
	c2.363,1.575,3.938,3.938,3.938,7.089v70.105c0,3.151-1.575,5.514-3.938,7.089l-60.652,33.871
	C258.363,262.302,257.575,263.089,256,263.089z M203.225,215.828L256,246.548l52.775-30.72v-60.652L256,124.455l-52.775,30.72
	V215.828z"></path>
<polygon style="fill:#FCBD5E;" points="222.917,204.012 222.917,166.203 256,146.511 289.083,166.203 289.083,204.012 256,223.705 
	"></polygon>
<polygon style="fill:#FFFFFF;" points="316.652,359.975 256,325.317 256,255.212 316.652,219.766 377.305,255.212 377.305,325.317 
	"></polygon>
<path style="fill:#183651;" d="M316.652,367.852c-1.575,0-2.363,0-3.938-0.788l-60.652-35.446c-2.363-1.575-3.938-3.938-3.938-7.089
	v-70.105c0-3.151,1.575-5.514,3.938-7.089l60.652-34.658c2.363-1.575,5.514-1.575,7.877,0l60.652,34.658
	c2.363,1.575,3.938,3.938,3.938,7.089v70.105c0,3.151-1.575,5.514-3.938,7.089l-60.652,34.658
	C319.015,367.852,318.228,367.852,316.652,367.852z M263.877,320.591l52.775,30.72l52.775-30.72v-60.652l-52.775-30.72
	l-52.775,30.72V320.591z"></path>
<polygon style="fill:#FCBD5E;" points="283.569,309.563 283.569,270.966 316.652,252.062 349.735,270.966 349.735,309.563 
	316.652,328.468 "></polygon>
<polygon style="fill:#FFFFFF;" points="195.348,359.975 134.695,325.317 134.695,255.212 195.348,219.766 256,255.212 256,325.317 
	"></polygon>
<path style="fill:#183651;" d="M195.348,367.852c-1.575,0-2.363,0-3.938-0.788l-60.652-34.658c-2.363-1.575-3.938-3.938-3.938-7.089
	v-70.105c0-3.151,1.575-5.514,3.938-7.089l60.652-34.658c2.363-1.575,5.514-1.575,7.877,0l60.652,34.658
	c2.363,1.575,3.938,3.938,3.938,7.089v70.105c0,3.151-1.575,5.514-3.938,7.089l-60.652,34.658
	C197.711,367.852,196.923,367.852,195.348,367.852z M142.572,320.591l52.775,30.72l52.775-30.72v-60.652l-52.775-30.72
	l-52.775,30.72V320.591z"></path>
<polygon style="fill:#FCBD5E;" points="162.265,309.563 162.265,270.966 195.348,252.062 228.431,270.966 228.431,309.563 
	195.348,328.468 "></polygon>
<g>
	
		<rect x="141.156" y="170.297" transform="matrix(-0.5082 0.8612 -0.8612 -0.5082 378.2208 140.373)" style="fill:#183651;" width="15.753" height="15.753"></rect>
	
		<rect x="244.477" y="353.198" transform="matrix(-0.0096 1 -1 -0.0096 615.8361 112.1989)" style="fill:#183651;" width="15.755" height="15.755"></rect>
	
		<rect x="351.519" y="172.4" transform="matrix(-0.8708 0.4917 -0.4917 -0.8708 760.9876 160.549)" style="fill:#183651;" width="15.754" height="15.754"></rect>
</g>
<g>
</g>
<g>
</g>
<g>
</g>
<g>
</g>
<g>
</g>
<g>
</g>
<g>
</g>
<g>
</g>
<g>
</g>
<g>
</g>
<g>
</g>
<g>
</g>
<g>
</g>
<g>
</g>
<g>
</g>
</svg><style>@media (prefers-color-scheme: light) { :root { filter: none; } }
</style></svg>